<svg xmlns="http://www.w3.org/2000/svg" width="554.217" height="669.01" viewBox="0 0 554.217 669.01">
  <g id="Grupo_768" data-name="Grupo 768" transform="translate(-275.667 -121.46)">
    <path id="Trazado_9" data-name="Trazado 9" d="M724.765,202.625a277.25,277.25,0,0,0-425.39,40.5,213.8,213.8,0,0,1,176.607-93.111c118.223,0,214.064,95.837,214.064,214.065A213.03,213.03,0,0,1,662.76,468.633,149.8,149.8,0,0,1,648,491.472a215.173,215.173,0,0,1-37.046,38.723l-82.143,82.142L439.749,701.4l89.066,89.066,195.95-195.945C832.984,486.3,832.984,310.847,724.765,202.625Z" transform="translate(23.955 0)" fill="#fff"/>
    <path id="Trazado_10" data-name="Trazado 10" d="M714,349.728C714,231.5,618.16,135.663,499.936,135.663A213.8,213.8,0,0,0,323.33,228.774c-.537.792-1.082,1.579-1.613,2.375-1.6,2.4-3.17,4.827-4.678,7.3-.117.189-.226.376-.344.565-65.816,106.8-52.453,248.584,40.126,341.162l61.853,61.849,89.067-89.067L445.888,491.1c-58.932-58.934-58.932-154.825,0-213.761a151.155,151.155,0,0,1,213.765,0c47.813,47.812,56.828,119.947,27.063,176.94A213.048,213.048,0,0,0,714,349.728Z" transform="translate(0 14.351)" fill="#fcfcfc"/>
    <path id="Trazado_11" data-name="Trazado 11" d="M557.35,308.678A94.529,94.529,0,1,1,547.2,266.12,93.273,93.273,0,0,1,557.35,308.678Z" transform="translate(93.694 93.707)" fill="#fff"/>
  </g>
</svg>
